<svg xmlns="http://www.w3.org/2000/svg" viewBox="0 0 628.71 58.11">
  <path d="M151.06 40L0 38l151.06-2a2 2 0 0 1 .05 4zM477.65 36l151.06 2-151.06 2a2 2 0 0 1 0-4z"/>
  <path fill="none" stroke="#231f20" stroke-linecap="round" stroke-miterlimit="10" stroke-width="4" d="M151.06 38h89a4 4 0 0 0 2.82-1.17l11.53-11.52a4 4 0 0 1 5.65 0l29.64 29.63a4 4 0 0 0 5.65 0L310.2 40.1a4 4 0 0 0 0-5.66L300.72 25a4 4 0 0 0-5.66 0l-8.84 8.85a4 4 0 0 0 0 5.65l2.64 2.65a4 4 0 0 0 5.66 0l2.83-2.83a4 4 0 0 0 0-5.66l-9.44-9.44-6.51-6.51a4 4 0 0 0-5.65 0l-11.66 11.62-6.56 6.55a4 4 0 0 0 0 5.68L259 43a4 4 0 0 0 5.63 0l27.75-27.8 12-12a4 4 0 0 1 5.65 0L320.9 14a4 4 0 0 1 0 5.65l-6.54 6.54-6.55-6.54a4 4 0 0 1 0-5.65l10.84-10.83a4 4 0 0 1 5.65 0l12 12L364.09 43a4 4 0 0 0 5.63 0l1.44-1.42a4 4 0 0 0 0-5.68l-6.55-6.55L353 17.67a4 4 0 0 0-5.66 0l-6.51 6.51-9.44 9.44a4 4 0 0 0 0 5.66l2.83 2.83a4 4 0 0 0 5.66 0l2.64-2.65a4 4 0 0 0 0-5.65L333.65 25a4 4 0 0 0-5.65 0l-9.48 9.48a4 4 0 0 0 0 5.66l14.85 14.84a4 4 0 0 0 5.65 0l29.66-29.65a4 4 0 0 1 5.65 0l11.53 11.52a4 4 0 0 0 2.82 1.15h89"/>
</svg>
